<mxfile host="app.diagrams.net" modified="2023-02-21T01:05:27.356Z" agent="5.0 (Windows NT 10.0; Win64; x64) AppleWebKit/537.36 (KHTML, like Gecko) Chrome/110.0.0.0 Safari/537.36" etag="qEvgykjZcdQTd0TBhOpp" version="20.8.20" type="github">
  <diagram name="PÃ¡gina-1" id="5jDgC4JBltUdnbmfNg-T">
    <mxGraphModel dx="819" dy="1601" grid="1" gridSize="10" guides="1" tooltips="1" connect="1" arrows="1" fold="1" page="1" pageScale="1" pageWidth="827" pageHeight="1169" math="0" shadow="0">
      <root>
        <mxCell id="0" />
        <mxCell id="1" parent="0" />
        <mxCell id="DLjpoMInxnvfnNG7Ht0P-1" value="" style="rounded=0;whiteSpace=wrap;html=1;" parent="1" vertex="1">
          <mxGeometry x="40" y="20" width="750" height="70" as="geometry" />
        </mxCell>
        <mxCell id="DLjpoMInxnvfnNG7Ht0P-2" value="LOGO" style="rounded=0;whiteSpace=wrap;html=1;" parent="1" vertex="1">
          <mxGeometry x="60" y="35" width="120" height="35" as="geometry" />
        </mxCell>
        <mxCell id="DLjpoMInxnvfnNG7Ht0P-3" value="" style="rounded=0;whiteSpace=wrap;html=1;" parent="1" vertex="1">
          <mxGeometry x="360" y="35" width="420" height="35" as="geometry" />
        </mxCell>
        <mxCell id="DLjpoMInxnvfnNG7Ht0P-4" value="" style="rounded=0;whiteSpace=wrap;html=1;" parent="1" vertex="1">
          <mxGeometry x="379" y="42.5" width="70" height="20" as="geometry" />
        </mxCell>
        <mxCell id="DLjpoMInxnvfnNG7Ht0P-5" value="" style="rounded=0;whiteSpace=wrap;html=1;" parent="1" vertex="1">
          <mxGeometry x="540" y="42.5" width="70" height="20" as="geometry" />
        </mxCell>
        <mxCell id="DLjpoMInxnvfnNG7Ht0P-8" value="" style="rounded=0;whiteSpace=wrap;html=1;" parent="1" vertex="1">
          <mxGeometry x="620" y="42.5" width="70" height="20" as="geometry" />
        </mxCell>
        <mxCell id="DLjpoMInxnvfnNG7Ht0P-9" value="" style="rounded=0;whiteSpace=wrap;html=1;" parent="1" vertex="1">
          <mxGeometry x="460" y="42.5" width="70" height="20" as="geometry" />
        </mxCell>
        <mxCell id="DLjpoMInxnvfnNG7Ht0P-10" value="&lt;span&gt;NAV&lt;/span&gt;" style="text;html=1;strokeColor=none;fillColor=none;align=center;verticalAlign=middle;whiteSpace=wrap;rounded=0;fontStyle=1;fontColor=#f40b0b;" parent="1" vertex="1">
          <mxGeometry x="379" y="-20" width="60" height="30" as="geometry" />
        </mxCell>
        <mxCell id="DLjpoMInxnvfnNG7Ht0P-11" value="&lt;span&gt;UL&lt;/span&gt;" style="text;html=1;strokeColor=none;fillColor=none;align=center;verticalAlign=middle;whiteSpace=wrap;rounded=0;fontStyle=1;fontColor=#f40b0b;" parent="1" vertex="1">
          <mxGeometry x="520" y="70" width="60" height="30" as="geometry" />
        </mxCell>
        <mxCell id="DLjpoMInxnvfnNG7Ht0P-12" value="&lt;span&gt;IMG&lt;/span&gt;" style="text;html=1;strokeColor=none;fillColor=none;align=center;verticalAlign=middle;whiteSpace=wrap;rounded=0;fontStyle=1;fontColor=#f40b0b;" parent="1" vertex="1">
          <mxGeometry x="80" y="70" width="60" height="30" as="geometry" />
        </mxCell>
        <mxCell id="DLjpoMInxnvfnNG7Ht0P-13" value="VIEWPORT" style="text;html=1;strokeColor=none;fillColor=none;align=center;verticalAlign=middle;whiteSpace=wrap;rounded=0;fontColor=#f40b0b;fontSize=25;" parent="1" vertex="1">
          <mxGeometry x="334.5" y="-130" width="161" height="30" as="geometry" />
        </mxCell>
        <mxCell id="LdkPaSGKum9pUnrCHZW5-1" value="" style="rounded=0;whiteSpace=wrap;html=1;" parent="1" vertex="1">
          <mxGeometry x="40" y="100" width="750" height="360" as="geometry" />
        </mxCell>
        <mxCell id="LdkPaSGKum9pUnrCHZW5-2" value="" style="rounded=0;whiteSpace=wrap;html=1;strokeColor=#a61c9a;" parent="1" vertex="1">
          <mxGeometry x="130" y="120" width="550" height="330" as="geometry" />
        </mxCell>
        <mxCell id="LdkPaSGKum9pUnrCHZW5-3" value="" style="rounded=0;whiteSpace=wrap;html=1;strokeColor=#e8a617;" parent="1" vertex="1">
          <mxGeometry x="140" y="130" width="530" height="50" as="geometry" />
        </mxCell>
        <mxCell id="LdkPaSGKum9pUnrCHZW5-4" value="" style="rounded=0;whiteSpace=wrap;html=1;strokeColor=#e8a617;" parent="1" vertex="1">
          <mxGeometry x="500" y="145" width="110" height="20" as="geometry" />
        </mxCell>
        <mxCell id="LdkPaSGKum9pUnrCHZW5-5" value="" style="rounded=0;whiteSpace=wrap;html=1;strokeColor=#e8a617;" parent="1" vertex="1">
          <mxGeometry x="620" y="145" width="30" height="20" as="geometry" />
        </mxCell>
        <mxCell id="LdkPaSGKum9pUnrCHZW5-6" value="" style="rounded=0;whiteSpace=wrap;html=1;strokeColor=#27a52f;" parent="1" vertex="1">
          <mxGeometry x="140" y="190" width="520" height="250" as="geometry" />
        </mxCell>
        <mxCell id="LdkPaSGKum9pUnrCHZW5-7" value="" style="rounded=0;whiteSpace=wrap;html=1;strokeColor=#0d0d0d;" parent="1" vertex="1">
          <mxGeometry x="150" y="200" width="500" height="230" as="geometry" />
        </mxCell>
        <mxCell id="huJJJPo14DsxcEzs4Kyg-1" value="" style="group" vertex="1" connectable="0" parent="1">
          <mxGeometry x="164" y="310" width="296" height="110" as="geometry" />
        </mxCell>
        <mxCell id="LdkPaSGKum9pUnrCHZW5-11" value="" style="group" parent="huJJJPo14DsxcEzs4Kyg-1" vertex="1" connectable="0">
          <mxGeometry width="296" height="110" as="geometry" />
        </mxCell>
        <mxCell id="LdkPaSGKum9pUnrCHZW5-8" value="" style="rounded=0;whiteSpace=wrap;html=1;strokeColor=#0d0d0d;" parent="LdkPaSGKum9pUnrCHZW5-11" vertex="1">
          <mxGeometry width="296" height="110" as="geometry" />
        </mxCell>
        <mxCell id="LdkPaSGKum9pUnrCHZW5-9" value="" style="rounded=0;whiteSpace=wrap;html=1;strokeColor=#0d0d0d;" parent="LdkPaSGKum9pUnrCHZW5-11" vertex="1">
          <mxGeometry x="11.84" y="10" width="272.32" height="30" as="geometry" />
        </mxCell>
        <mxCell id="LdkPaSGKum9pUnrCHZW5-10" value="" style="rounded=0;whiteSpace=wrap;html=1;strokeColor=#0d0d0d;" parent="LdkPaSGKum9pUnrCHZW5-11" vertex="1">
          <mxGeometry x="11.84" y="60" width="272.32" height="30" as="geometry" />
        </mxCell>
        <mxCell id="LdkPaSGKum9pUnrCHZW5-14" value="" style="rounded=0;whiteSpace=wrap;html=1;strokeColor=#0d0d0d;" parent="LdkPaSGKum9pUnrCHZW5-11" vertex="1">
          <mxGeometry x="213.11999999999998" y="70" width="65.11999999999999" height="10" as="geometry" />
        </mxCell>
        <mxCell id="LdkPaSGKum9pUnrCHZW5-13" value="" style="rounded=0;whiteSpace=wrap;html=1;strokeColor=#0d0d0d;" parent="huJJJPo14DsxcEzs4Kyg-1" vertex="1">
          <mxGeometry x="17.759999999999998" y="70" width="65.11999999999999" height="10" as="geometry" />
        </mxCell>
        <mxCell id="huJJJPo14DsxcEzs4Kyg-2" value="" style="rounded=0;whiteSpace=wrap;html=1;" vertex="1" parent="1">
          <mxGeometry x="40" y="470" width="750" height="350" as="geometry" />
        </mxCell>
        <mxCell id="huJJJPo14DsxcEzs4Kyg-4" value="" style="rounded=0;whiteSpace=wrap;html=1;strokeColor=#a61c9a;" vertex="1" parent="1">
          <mxGeometry x="130" y="480" width="550" height="330" as="geometry" />
        </mxCell>
        <mxCell id="huJJJPo14DsxcEzs4Kyg-14" value="" style="group" vertex="1" connectable="0" parent="1">
          <mxGeometry x="140" y="490" width="170" height="140" as="geometry" />
        </mxCell>
        <mxCell id="huJJJPo14DsxcEzs4Kyg-16" value="" style="group" vertex="1" connectable="0" parent="huJJJPo14DsxcEzs4Kyg-14">
          <mxGeometry width="170" height="140" as="geometry" />
        </mxCell>
        <mxCell id="huJJJPo14DsxcEzs4Kyg-5" value="" style="rounded=0;whiteSpace=wrap;html=1;" vertex="1" parent="huJJJPo14DsxcEzs4Kyg-16">
          <mxGeometry width="170" height="140" as="geometry" />
        </mxCell>
        <mxCell id="huJJJPo14DsxcEzs4Kyg-10" value="" style="rounded=0;whiteSpace=wrap;html=1;strokeColor=#549730;" vertex="1" parent="huJJJPo14DsxcEzs4Kyg-16">
          <mxGeometry x="10" y="10" width="150" height="70" as="geometry" />
        </mxCell>
        <mxCell id="huJJJPo14DsxcEzs4Kyg-11" value="" style="rounded=0;whiteSpace=wrap;html=1;strokeColor=#ce9b55;" vertex="1" parent="huJJJPo14DsxcEzs4Kyg-16">
          <mxGeometry x="10" y="90" width="150" height="40" as="geometry" />
        </mxCell>
        <mxCell id="huJJJPo14DsxcEzs4Kyg-12" value="" style="rounded=0;whiteSpace=wrap;html=1;strokeColor=#1dd4ed;" vertex="1" parent="huJJJPo14DsxcEzs4Kyg-16">
          <mxGeometry x="24" y="95" width="120" height="11" as="geometry" />
        </mxCell>
        <mxCell id="huJJJPo14DsxcEzs4Kyg-13" value="" style="rounded=0;whiteSpace=wrap;html=1;strokeColor=#1dd4ed;" vertex="1" parent="huJJJPo14DsxcEzs4Kyg-16">
          <mxGeometry x="24" y="111" width="120" height="11" as="geometry" />
        </mxCell>
        <mxCell id="huJJJPo14DsxcEzs4Kyg-17" value="" style="group" vertex="1" connectable="0" parent="1">
          <mxGeometry x="321" y="490" width="170" height="140" as="geometry" />
        </mxCell>
        <mxCell id="huJJJPo14DsxcEzs4Kyg-18" value="" style="group" vertex="1" connectable="0" parent="huJJJPo14DsxcEzs4Kyg-17">
          <mxGeometry width="170" height="140" as="geometry" />
        </mxCell>
        <mxCell id="huJJJPo14DsxcEzs4Kyg-19" value="" style="rounded=0;whiteSpace=wrap;html=1;" vertex="1" parent="huJJJPo14DsxcEzs4Kyg-18">
          <mxGeometry width="170" height="140" as="geometry" />
        </mxCell>
        <mxCell id="huJJJPo14DsxcEzs4Kyg-20" value="" style="rounded=0;whiteSpace=wrap;html=1;strokeColor=#549730;" vertex="1" parent="huJJJPo14DsxcEzs4Kyg-18">
          <mxGeometry x="10" y="10" width="150" height="70" as="geometry" />
        </mxCell>
        <mxCell id="huJJJPo14DsxcEzs4Kyg-21" value="" style="rounded=0;whiteSpace=wrap;html=1;strokeColor=#ce9b55;" vertex="1" parent="huJJJPo14DsxcEzs4Kyg-18">
          <mxGeometry x="10" y="90" width="150" height="40" as="geometry" />
        </mxCell>
        <mxCell id="huJJJPo14DsxcEzs4Kyg-22" value="" style="rounded=0;whiteSpace=wrap;html=1;strokeColor=#1dd4ed;" vertex="1" parent="huJJJPo14DsxcEzs4Kyg-18">
          <mxGeometry x="24" y="95" width="120" height="11" as="geometry" />
        </mxCell>
        <mxCell id="huJJJPo14DsxcEzs4Kyg-23" value="" style="rounded=0;whiteSpace=wrap;html=1;strokeColor=#1dd4ed;" vertex="1" parent="huJJJPo14DsxcEzs4Kyg-18">
          <mxGeometry x="24" y="111" width="120" height="11" as="geometry" />
        </mxCell>
        <mxCell id="huJJJPo14DsxcEzs4Kyg-24" value="" style="group" vertex="1" connectable="0" parent="1">
          <mxGeometry x="500" y="490" width="170" height="140" as="geometry" />
        </mxCell>
        <mxCell id="huJJJPo14DsxcEzs4Kyg-25" value="" style="group" vertex="1" connectable="0" parent="huJJJPo14DsxcEzs4Kyg-24">
          <mxGeometry width="170" height="140" as="geometry" />
        </mxCell>
        <mxCell id="huJJJPo14DsxcEzs4Kyg-26" value="" style="rounded=0;whiteSpace=wrap;html=1;" vertex="1" parent="huJJJPo14DsxcEzs4Kyg-25">
          <mxGeometry width="170" height="140" as="geometry" />
        </mxCell>
        <mxCell id="huJJJPo14DsxcEzs4Kyg-27" value="" style="rounded=0;whiteSpace=wrap;html=1;strokeColor=#549730;" vertex="1" parent="huJJJPo14DsxcEzs4Kyg-25">
          <mxGeometry x="10" y="10" width="150" height="70" as="geometry" />
        </mxCell>
        <mxCell id="huJJJPo14DsxcEzs4Kyg-28" value="" style="rounded=0;whiteSpace=wrap;html=1;strokeColor=#ce9b55;" vertex="1" parent="huJJJPo14DsxcEzs4Kyg-25">
          <mxGeometry x="10" y="90" width="150" height="40" as="geometry" />
        </mxCell>
        <mxCell id="huJJJPo14DsxcEzs4Kyg-29" value="" style="rounded=0;whiteSpace=wrap;html=1;strokeColor=#1dd4ed;" vertex="1" parent="huJJJPo14DsxcEzs4Kyg-25">
          <mxGeometry x="24" y="95" width="120" height="11" as="geometry" />
        </mxCell>
        <mxCell id="huJJJPo14DsxcEzs4Kyg-30" value="" style="rounded=0;whiteSpace=wrap;html=1;strokeColor=#1dd4ed;" vertex="1" parent="huJJJPo14DsxcEzs4Kyg-25">
          <mxGeometry x="24" y="111" width="120" height="11" as="geometry" />
        </mxCell>
      </root>
    </mxGraphModel>
  </diagram>
</mxfile>
